<mxfile host="app.diagrams.net" modified="2023-10-13T05:26:42.913Z" agent="Mozilla/5.0 (Windows NT 10.0; Win64; x64) AppleWebKit/537.36 (KHTML, like Gecko) Chrome/118.0.0.0 Safari/537.36" etag="9-sGKFHPJ3ZLfeQORPte" version="22.0.4" type="device" pages="2">
  <diagram name="PÃ¡gina-1" id="xiPghUlWG0FVDZ-jeGFu">
    <mxGraphModel dx="1434" dy="758" grid="1" gridSize="10" guides="1" tooltips="1" connect="1" arrows="1" fold="1" page="1" pageScale="1" pageWidth="827" pageHeight="1169" math="0" shadow="0">
      <root>
        <mxCell id="0" />
        <mxCell id="1" parent="0" />
        <mxCell id="7EwEz8-PtzygZJHqSghz-1" value="&lt;font style=&quot;vertical-align: inherit;&quot;&gt;&lt;font style=&quot;vertical-align: inherit;&quot;&gt;INICIO&lt;/font&gt;&lt;/font&gt;" style="ellipse;whiteSpace=wrap;html=1;" vertex="1" parent="1">
          <mxGeometry x="340" y="10" width="100" height="60" as="geometry" />
        </mxCell>
        <mxCell id="7EwEz8-PtzygZJHqSghz-2" value="" style="endArrow=classic;html=1;rounded=0;exitX=0.5;exitY=1;exitDx=0;exitDy=0;" edge="1" parent="1" source="7EwEz8-PtzygZJHqSghz-1">
          <mxGeometry width="50" height="50" relative="1" as="geometry">
            <mxPoint x="390" y="250" as="sourcePoint" />
            <mxPoint x="390" y="110" as="targetPoint" />
          </mxGeometry>
        </mxCell>
        <mxCell id="7EwEz8-PtzygZJHqSghz-3" value="&lt;font style=&quot;vertical-align: inherit;&quot;&gt;&lt;font style=&quot;vertical-align: inherit;&quot;&gt;int cal1, cal2, cal3, cal4, cal4, cal5, edad&lt;br&gt;string grupo, int prom&lt;br&gt;&lt;/font&gt;&lt;/font&gt;" style="rounded=0;whiteSpace=wrap;html=1;" vertex="1" parent="1">
          <mxGeometry x="270" y="110" width="240" height="60" as="geometry" />
        </mxCell>
        <mxCell id="7EwEz8-PtzygZJHqSghz-4" value="&lt;font style=&quot;vertical-align: inherit;&quot;&gt;&lt;font style=&quot;vertical-align: inherit;&quot;&gt;ingresa calificacion 1&lt;/font&gt;&lt;/font&gt;" style="shape=parallelogram;perimeter=parallelogramPerimeter;whiteSpace=wrap;html=1;fixedSize=1;" vertex="1" parent="1">
          <mxGeometry x="290" y="210" width="200" height="60" as="geometry" />
        </mxCell>
        <mxCell id="7EwEz8-PtzygZJHqSghz-5" value="" style="endArrow=classic;html=1;rounded=0;exitX=0.5;exitY=1;exitDx=0;exitDy=0;" edge="1" parent="1" source="7EwEz8-PtzygZJHqSghz-3">
          <mxGeometry width="50" height="50" relative="1" as="geometry">
            <mxPoint x="390" y="250" as="sourcePoint" />
            <mxPoint x="390" y="210" as="targetPoint" />
          </mxGeometry>
        </mxCell>
        <mxCell id="7EwEz8-PtzygZJHqSghz-6" value="&lt;font style=&quot;vertical-align: inherit;&quot;&gt;&lt;font style=&quot;vertical-align: inherit;&quot;&gt;Cal 1&lt;/font&gt;&lt;/font&gt;" style="rounded=0;whiteSpace=wrap;html=1;" vertex="1" parent="1">
          <mxGeometry x="305" y="310" width="170" height="40" as="geometry" />
        </mxCell>
        <mxCell id="7EwEz8-PtzygZJHqSghz-7" value="" style="endArrow=classic;html=1;rounded=0;exitX=0.5;exitY=1;exitDx=0;exitDy=0;entryX=0.5;entryY=0;entryDx=0;entryDy=0;" edge="1" parent="1" source="7EwEz8-PtzygZJHqSghz-4" target="7EwEz8-PtzygZJHqSghz-6">
          <mxGeometry width="50" height="50" relative="1" as="geometry">
            <mxPoint x="390" y="250" as="sourcePoint" />
            <mxPoint x="440" y="200" as="targetPoint" />
          </mxGeometry>
        </mxCell>
        <mxCell id="7EwEz8-PtzygZJHqSghz-8" value="" style="endArrow=classic;html=1;rounded=0;exitX=0.5;exitY=1;exitDx=0;exitDy=0;" edge="1" parent="1" source="7EwEz8-PtzygZJHqSghz-6">
          <mxGeometry width="50" height="50" relative="1" as="geometry">
            <mxPoint x="390" y="250" as="sourcePoint" />
            <mxPoint x="390" y="390" as="targetPoint" />
          </mxGeometry>
        </mxCell>
        <mxCell id="7EwEz8-PtzygZJHqSghz-9" value="&lt;font style=&quot;vertical-align: inherit;&quot;&gt;&lt;font style=&quot;vertical-align: inherit;&quot;&gt;&lt;font style=&quot;vertical-align: inherit;&quot;&gt;&lt;font style=&quot;vertical-align: inherit;&quot;&gt;ingresa cal 2&lt;/font&gt;&lt;/font&gt;&lt;/font&gt;&lt;/font&gt;" style="shape=parallelogram;perimeter=parallelogramPerimeter;whiteSpace=wrap;html=1;fixedSize=1;" vertex="1" parent="1">
          <mxGeometry x="290" y="390" width="200" height="60" as="geometry" />
        </mxCell>
        <mxCell id="7EwEz8-PtzygZJHqSghz-10" value="" style="endArrow=classic;html=1;rounded=0;exitX=0.5;exitY=1;exitDx=0;exitDy=0;" edge="1" parent="1" source="7EwEz8-PtzygZJHqSghz-9">
          <mxGeometry width="50" height="50" relative="1" as="geometry">
            <mxPoint x="390" y="580" as="sourcePoint" />
            <mxPoint x="390" y="490" as="targetPoint" />
          </mxGeometry>
        </mxCell>
        <mxCell id="7EwEz8-PtzygZJHqSghz-11" value="&lt;font style=&quot;vertical-align: inherit;&quot;&gt;&lt;font style=&quot;vertical-align: inherit;&quot;&gt;&lt;font style=&quot;vertical-align: inherit;&quot;&gt;&lt;font style=&quot;vertical-align: inherit;&quot;&gt;&lt;font style=&quot;vertical-align: inherit;&quot;&gt;&lt;font style=&quot;vertical-align: inherit;&quot;&gt;&lt;font style=&quot;vertical-align: inherit;&quot;&gt;&lt;font style=&quot;vertical-align: inherit;&quot;&gt;&lt;font style=&quot;vertical-align: inherit;&quot;&gt;&lt;font style=&quot;vertical-align: inherit;&quot;&gt;&lt;font style=&quot;vertical-align: inherit;&quot;&gt;&lt;font style=&quot;vertical-align: inherit;&quot;&gt;&lt;font style=&quot;vertical-align: inherit;&quot;&gt;&lt;font style=&quot;vertical-align: inherit;&quot;&gt;cal&amp;nbsp; 2&lt;/font&gt;&lt;/font&gt;&lt;/font&gt;&lt;/font&gt;&lt;/font&gt;&lt;/font&gt;&lt;/font&gt;&lt;/font&gt;&lt;/font&gt;&lt;/font&gt;&lt;/font&gt;&lt;/font&gt;&lt;/font&gt;&lt;/font&gt;" style="rounded=0;whiteSpace=wrap;html=1;" vertex="1" parent="1">
          <mxGeometry x="301.25" y="490" width="175" height="40" as="geometry" />
        </mxCell>
        <mxCell id="7EwEz8-PtzygZJHqSghz-12" value="" style="endArrow=classic;html=1;rounded=0;exitX=0.5;exitY=1;exitDx=0;exitDy=0;" edge="1" parent="1" source="7EwEz8-PtzygZJHqSghz-11">
          <mxGeometry width="50" height="50" relative="1" as="geometry">
            <mxPoint x="390" y="580" as="sourcePoint" />
            <mxPoint x="390" y="570" as="targetPoint" />
          </mxGeometry>
        </mxCell>
        <mxCell id="7EwEz8-PtzygZJHqSghz-13" value="&lt;font style=&quot;vertical-align: inherit;&quot;&gt;&lt;font style=&quot;vertical-align: inherit;&quot;&gt;ingresa cal 3&lt;/font&gt;&lt;/font&gt;" style="shape=parallelogram;perimeter=parallelogramPerimeter;whiteSpace=wrap;html=1;fixedSize=1;" vertex="1" parent="1">
          <mxGeometry x="290" y="570" width="200" height="60" as="geometry" />
        </mxCell>
        <mxCell id="7EwEz8-PtzygZJHqSghz-15" value="" style="endArrow=classic;html=1;rounded=0;exitX=0.5;exitY=1;exitDx=0;exitDy=0;" edge="1" parent="1" source="7EwEz8-PtzygZJHqSghz-13">
          <mxGeometry width="50" height="50" relative="1" as="geometry">
            <mxPoint x="390" y="580" as="sourcePoint" />
            <mxPoint x="390" y="670" as="targetPoint" />
          </mxGeometry>
        </mxCell>
        <mxCell id="7EwEz8-PtzygZJHqSghz-16" value="&lt;font style=&quot;vertical-align: inherit;&quot;&gt;&lt;font style=&quot;vertical-align: inherit;&quot;&gt;Cal 3&lt;/font&gt;&lt;/font&gt;" style="rounded=0;whiteSpace=wrap;html=1;" vertex="1" parent="1">
          <mxGeometry x="300" y="670" width="177.5" height="40" as="geometry" />
        </mxCell>
        <mxCell id="7EwEz8-PtzygZJHqSghz-17" value="" style="endArrow=classic;html=1;rounded=0;exitX=0.5;exitY=1;exitDx=0;exitDy=0;" edge="1" parent="1" source="7EwEz8-PtzygZJHqSghz-16">
          <mxGeometry width="50" height="50" relative="1" as="geometry">
            <mxPoint x="390" y="580" as="sourcePoint" />
            <mxPoint x="389" y="750" as="targetPoint" />
          </mxGeometry>
        </mxCell>
        <mxCell id="7EwEz8-PtzygZJHqSghz-18" value="&lt;font style=&quot;vertical-align: inherit;&quot;&gt;&lt;font style=&quot;vertical-align: inherit;&quot;&gt;ingresa cal 4&lt;/font&gt;&lt;/font&gt;" style="shape=parallelogram;perimeter=parallelogramPerimeter;whiteSpace=wrap;html=1;fixedSize=1;" vertex="1" parent="1">
          <mxGeometry x="288.75" y="750" width="200" height="60" as="geometry" />
        </mxCell>
        <mxCell id="7EwEz8-PtzygZJHqSghz-19" value="" style="endArrow=classic;html=1;rounded=0;exitX=0.5;exitY=1;exitDx=0;exitDy=0;" edge="1" parent="1" source="7EwEz8-PtzygZJHqSghz-18">
          <mxGeometry width="50" height="50" relative="1" as="geometry">
            <mxPoint x="390" y="850" as="sourcePoint" />
            <mxPoint x="390" y="850" as="targetPoint" />
          </mxGeometry>
        </mxCell>
        <mxCell id="7EwEz8-PtzygZJHqSghz-20" value="&lt;font style=&quot;vertical-align: inherit;&quot;&gt;&lt;font style=&quot;vertical-align: inherit;&quot;&gt;Cal 4&lt;/font&gt;&lt;/font&gt;" style="rounded=0;whiteSpace=wrap;html=1;" vertex="1" parent="1">
          <mxGeometry x="300" y="850" width="180" height="40" as="geometry" />
        </mxCell>
        <mxCell id="7EwEz8-PtzygZJHqSghz-21" value="" style="endArrow=classic;html=1;rounded=0;exitX=0.5;exitY=1;exitDx=0;exitDy=0;" edge="1" parent="1" source="7EwEz8-PtzygZJHqSghz-20">
          <mxGeometry width="50" height="50" relative="1" as="geometry">
            <mxPoint x="390" y="850" as="sourcePoint" />
            <mxPoint x="390" y="930" as="targetPoint" />
          </mxGeometry>
        </mxCell>
        <mxCell id="7EwEz8-PtzygZJHqSghz-22" value="&lt;font style=&quot;vertical-align: inherit;&quot;&gt;&lt;font style=&quot;vertical-align: inherit;&quot;&gt;1&lt;/font&gt;&lt;/font&gt;" style="ellipse;whiteSpace=wrap;html=1;aspect=fixed;" vertex="1" parent="1">
          <mxGeometry x="375" y="930" width="30" height="30" as="geometry" />
        </mxCell>
      </root>
    </mxGraphModel>
  </diagram>
  <diagram id="uS3xjfJoLtYK58X7UzpC" name="PÃ¡gina-2">
    <mxGraphModel dx="1434" dy="758" grid="1" gridSize="10" guides="1" tooltips="1" connect="1" arrows="1" fold="1" page="1" pageScale="1" pageWidth="827" pageHeight="1169" math="0" shadow="0">
      <root>
        <mxCell id="0" />
        <mxCell id="1" parent="0" />
        <mxCell id="iNqdNBhJyVy_k3XLHL68-1" value="1" style="ellipse;whiteSpace=wrap;html=1;aspect=fixed;" vertex="1" parent="1">
          <mxGeometry x="384" y="30" width="30" height="30" as="geometry" />
        </mxCell>
        <mxCell id="iNqdNBhJyVy_k3XLHL68-2" value="" style="endArrow=classic;html=1;rounded=0;exitX=0.5;exitY=1;exitDx=0;exitDy=0;" edge="1" parent="1" source="iNqdNBhJyVy_k3XLHL68-1">
          <mxGeometry width="50" height="50" relative="1" as="geometry">
            <mxPoint x="390" y="350" as="sourcePoint" />
            <mxPoint x="399" y="100" as="targetPoint" />
          </mxGeometry>
        </mxCell>
        <mxCell id="iNqdNBhJyVy_k3XLHL68-3" value="ingresa cal 5" style="shape=parallelogram;perimeter=parallelogramPerimeter;whiteSpace=wrap;html=1;fixedSize=1;" vertex="1" parent="1">
          <mxGeometry x="313.5" y="100" width="171" height="60" as="geometry" />
        </mxCell>
        <mxCell id="iNqdNBhJyVy_k3XLHL68-4" value="" style="endArrow=classic;html=1;rounded=0;exitX=0.5;exitY=1;exitDx=0;exitDy=0;" edge="1" parent="1" source="iNqdNBhJyVy_k3XLHL68-3">
          <mxGeometry width="50" height="50" relative="1" as="geometry">
            <mxPoint x="390" y="350" as="sourcePoint" />
            <mxPoint x="399" y="200" as="targetPoint" />
          </mxGeometry>
        </mxCell>
        <mxCell id="iNqdNBhJyVy_k3XLHL68-5" value="cal 5&amp;nbsp;" style="rounded=0;whiteSpace=wrap;html=1;" vertex="1" parent="1">
          <mxGeometry x="309.5" y="200" width="179" height="40" as="geometry" />
        </mxCell>
        <mxCell id="iNqdNBhJyVy_k3XLHL68-6" value="" style="endArrow=classic;html=1;rounded=0;exitX=0.5;exitY=1;exitDx=0;exitDy=0;" edge="1" parent="1" source="iNqdNBhJyVy_k3XLHL68-5">
          <mxGeometry width="50" height="50" relative="1" as="geometry">
            <mxPoint x="390" y="350" as="sourcePoint" />
            <mxPoint x="399" y="280" as="targetPoint" />
          </mxGeometry>
        </mxCell>
        <mxCell id="iNqdNBhJyVy_k3XLHL68-7" value="ingresa grupo" style="shape=parallelogram;perimeter=parallelogramPerimeter;whiteSpace=wrap;html=1;fixedSize=1;" vertex="1" parent="1">
          <mxGeometry x="313.5" y="280" width="176.5" height="60" as="geometry" />
        </mxCell>
        <mxCell id="iNqdNBhJyVy_k3XLHL68-8" value="" style="endArrow=classic;html=1;rounded=0;entryX=0.479;entryY=0;entryDx=0;entryDy=0;entryPerimeter=0;" edge="1" parent="1" target="iNqdNBhJyVy_k3XLHL68-9">
          <mxGeometry width="50" height="50" relative="1" as="geometry">
            <mxPoint x="398" y="340" as="sourcePoint" />
            <mxPoint x="400" y="370" as="targetPoint" />
          </mxGeometry>
        </mxCell>
        <mxCell id="iNqdNBhJyVy_k3XLHL68-9" value="grupo" style="rounded=0;whiteSpace=wrap;html=1;" vertex="1" parent="1">
          <mxGeometry x="313.5" y="380" width="180.5" height="40" as="geometry" />
        </mxCell>
        <mxCell id="iNqdNBhJyVy_k3XLHL68-10" value="" style="endArrow=classic;html=1;rounded=0;" edge="1" parent="1">
          <mxGeometry width="50" height="50" relative="1" as="geometry">
            <mxPoint x="400" y="420" as="sourcePoint" />
            <mxPoint x="400" y="460" as="targetPoint" />
          </mxGeometry>
        </mxCell>
        <mxCell id="iNqdNBhJyVy_k3XLHL68-11" value="ingresa edad" style="shape=parallelogram;perimeter=parallelogramPerimeter;whiteSpace=wrap;html=1;fixedSize=1;" vertex="1" parent="1">
          <mxGeometry x="309.5" y="460" width="180.5" height="60" as="geometry" />
        </mxCell>
        <mxCell id="iNqdNBhJyVy_k3XLHL68-12" value="edad" style="rounded=0;whiteSpace=wrap;html=1;" vertex="1" parent="1">
          <mxGeometry x="308.75" y="564.5" width="180.5" height="40" as="geometry" />
        </mxCell>
        <mxCell id="iNqdNBhJyVy_k3XLHL68-13" value="" style="endArrow=classic;html=1;rounded=0;exitX=0.5;exitY=1;exitDx=0;exitDy=0;" edge="1" parent="1" source="iNqdNBhJyVy_k3XLHL68-11">
          <mxGeometry width="50" height="50" relative="1" as="geometry">
            <mxPoint x="390" y="350" as="sourcePoint" />
            <mxPoint x="400" y="560" as="targetPoint" />
          </mxGeometry>
        </mxCell>
        <mxCell id="iNqdNBhJyVy_k3XLHL68-14" value="" style="endArrow=classic;html=1;rounded=0;exitX=0.5;exitY=1;exitDx=0;exitDy=0;" edge="1" parent="1" source="iNqdNBhJyVy_k3XLHL68-12">
          <mxGeometry width="50" height="50" relative="1" as="geometry">
            <mxPoint x="390" y="750" as="sourcePoint" />
            <mxPoint x="399" y="650" as="targetPoint" />
          </mxGeometry>
        </mxCell>
        <mxCell id="iNqdNBhJyVy_k3XLHL68-15" value="2" style="ellipse;whiteSpace=wrap;html=1;aspect=fixed;" vertex="1" parent="1">
          <mxGeometry x="384" y="650" width="30" height="30" as="geometry" />
        </mxCell>
        <mxCell id="iNqdNBhJyVy_k3XLHL68-16" value="" style="endArrow=classic;html=1;rounded=0;exitX=0.5;exitY=1;exitDx=0;exitDy=0;" edge="1" parent="1" source="iNqdNBhJyVy_k3XLHL68-15">
          <mxGeometry width="50" height="50" relative="1" as="geometry">
            <mxPoint x="390" y="750" as="sourcePoint" />
            <mxPoint x="400" y="710" as="targetPoint" />
          </mxGeometry>
        </mxCell>
        <mxCell id="iNqdNBhJyVy_k3XLHL68-17" value="Prom=Cal1+Cal2+Cal3+Cal4+Cal5" style="shape=parallelogram;perimeter=parallelogramPerimeter;whiteSpace=wrap;html=1;fixedSize=1;" vertex="1" parent="1">
          <mxGeometry x="293.37" y="710" width="211.25" height="40" as="geometry" />
        </mxCell>
        <mxCell id="iNqdNBhJyVy_k3XLHL68-18" value="" style="endArrow=classic;html=1;rounded=0;" edge="1" parent="1">
          <mxGeometry width="50" height="50" relative="1" as="geometry">
            <mxPoint x="400" y="750" as="sourcePoint" />
            <mxPoint x="400" y="780" as="targetPoint" />
          </mxGeometry>
        </mxCell>
        <mxCell id="iNqdNBhJyVy_k3XLHL68-20" value="Si prom&lt;br&gt;&amp;gt;=7" style="rhombus;whiteSpace=wrap;html=1;" vertex="1" parent="1">
          <mxGeometry x="318.57" y="780" width="159" height="60" as="geometry" />
        </mxCell>
        <mxCell id="iNqdNBhJyVy_k3XLHL68-22" value="" style="endArrow=classic;html=1;rounded=0;" edge="1" parent="1">
          <mxGeometry relative="1" as="geometry">
            <mxPoint x="477.57" y="809" as="sourcePoint" />
            <mxPoint x="538.32" y="809.5" as="targetPoint" />
          </mxGeometry>
        </mxCell>
        <mxCell id="iNqdNBhJyVy_k3XLHL68-23" value="no" style="edgeLabel;resizable=0;html=1;align=center;verticalAlign=middle;" connectable="0" vertex="1" parent="iNqdNBhJyVy_k3XLHL68-22">
          <mxGeometry relative="1" as="geometry" />
        </mxCell>
        <mxCell id="iNqdNBhJyVy_k3XLHL68-25" value="esta no competente" style="shape=parallelogram;perimeter=parallelogramPerimeter;whiteSpace=wrap;html=1;fixedSize=1;" vertex="1" parent="1">
          <mxGeometry x="530" y="790" width="130" height="40" as="geometry" />
        </mxCell>
        <mxCell id="iNqdNBhJyVy_k3XLHL68-26" value="" style="endArrow=classic;html=1;rounded=0;exitX=1;exitY=0.5;exitDx=0;exitDy=0;" edge="1" parent="1" source="iNqdNBhJyVy_k3XLHL68-25">
          <mxGeometry width="50" height="50" relative="1" as="geometry">
            <mxPoint x="390" y="880" as="sourcePoint" />
            <mxPoint x="690" y="810" as="targetPoint" />
          </mxGeometry>
        </mxCell>
        <mxCell id="iNqdNBhJyVy_k3XLHL68-27" value="4" style="ellipse;whiteSpace=wrap;html=1;aspect=fixed;" vertex="1" parent="1">
          <mxGeometry x="690" y="795" width="30" height="30" as="geometry" />
        </mxCell>
        <mxCell id="iNqdNBhJyVy_k3XLHL68-29" value="eres competente" style="shape=parallelogram;perimeter=parallelogramPerimeter;whiteSpace=wrap;html=1;fixedSize=1;" vertex="1" parent="1">
          <mxGeometry x="321.94" y="880" width="155.63" height="50" as="geometry" />
        </mxCell>
        <mxCell id="iNqdNBhJyVy_k3XLHL68-30" value="" style="endArrow=classic;html=1;rounded=0;exitX=0.5;exitY=1;exitDx=0;exitDy=0;" edge="1" parent="1" source="iNqdNBhJyVy_k3XLHL68-20">
          <mxGeometry relative="1" as="geometry">
            <mxPoint x="400" y="860" as="sourcePoint" />
            <mxPoint x="400" y="880" as="targetPoint" />
          </mxGeometry>
        </mxCell>
        <mxCell id="iNqdNBhJyVy_k3XLHL68-32" value="" style="endArrow=classic;html=1;rounded=0;exitX=0.5;exitY=1;exitDx=0;exitDy=0;entryX=0.5;entryY=0;entryDx=0;entryDy=0;" edge="1" parent="1" source="iNqdNBhJyVy_k3XLHL68-29" target="iNqdNBhJyVy_k3XLHL68-33">
          <mxGeometry width="50" height="50" relative="1" as="geometry">
            <mxPoint x="390" y="880" as="sourcePoint" />
            <mxPoint x="400" y="960" as="targetPoint" />
          </mxGeometry>
        </mxCell>
        <mxCell id="iNqdNBhJyVy_k3XLHL68-33" value="Grupo&lt;br&gt;==&lt;br&gt;305" style="rhombus;whiteSpace=wrap;html=1;" vertex="1" parent="1">
          <mxGeometry x="331.99" y="970" width="135.53" height="60" as="geometry" />
        </mxCell>
        <mxCell id="iNqdNBhJyVy_k3XLHL68-34" value="" style="endArrow=classic;html=1;rounded=0;exitX=0.5;exitY=1;exitDx=0;exitDy=0;" edge="1" parent="1" source="iNqdNBhJyVy_k3XLHL68-33">
          <mxGeometry relative="1" as="geometry">
            <mxPoint x="360" y="860" as="sourcePoint" />
            <mxPoint x="400" y="1070" as="targetPoint" />
          </mxGeometry>
        </mxCell>
        <mxCell id="iNqdNBhJyVy_k3XLHL68-35" value="si" style="edgeLabel;resizable=0;html=1;align=center;verticalAlign=middle;" connectable="0" vertex="1" parent="iNqdNBhJyVy_k3XLHL68-34">
          <mxGeometry relative="1" as="geometry" />
        </mxCell>
        <mxCell id="iNqdNBhJyVy_k3XLHL68-36" value="programas" style="shape=parallelogram;perimeter=parallelogramPerimeter;whiteSpace=wrap;html=1;fixedSize=1;" vertex="1" parent="1">
          <mxGeometry x="322.72" y="1070" width="158.06" height="50" as="geometry" />
        </mxCell>
        <mxCell id="iNqdNBhJyVy_k3XLHL68-37" value="" style="endArrow=classic;html=1;rounded=0;exitX=0.5;exitY=1;exitDx=0;exitDy=0;entryX=0.5;entryY=0;entryDx=0;entryDy=0;" edge="1" parent="1" source="iNqdNBhJyVy_k3XLHL68-36" target="iNqdNBhJyVy_k3XLHL68-40">
          <mxGeometry width="50" height="50" relative="1" as="geometry">
            <mxPoint x="390" y="880" as="sourcePoint" />
            <mxPoint x="400" y="1150" as="targetPoint" />
          </mxGeometry>
        </mxCell>
        <mxCell id="iNqdNBhJyVy_k3XLHL68-40" value="3" style="ellipse;whiteSpace=wrap;html=1;aspect=fixed;" vertex="1" parent="1">
          <mxGeometry x="386.25" y="1160" width="31" height="31" as="geometry" />
        </mxCell>
        <mxCell id="iNqdNBhJyVy_k3XLHL68-44" value="" style="endArrow=classic;html=1;rounded=0;exitX=0.959;exitY=0.533;exitDx=0;exitDy=0;exitPerimeter=0;" edge="1" parent="1" source="iNqdNBhJyVy_k3XLHL68-33">
          <mxGeometry relative="1" as="geometry">
            <mxPoint x="360" y="1060" as="sourcePoint" />
            <mxPoint x="520" y="1002" as="targetPoint" />
          </mxGeometry>
        </mxCell>
        <mxCell id="iNqdNBhJyVy_k3XLHL68-45" value="no" style="edgeLabel;resizable=0;html=1;align=center;verticalAlign=middle;" connectable="0" vertex="1" parent="iNqdNBhJyVy_k3XLHL68-44">
          <mxGeometry relative="1" as="geometry" />
        </mxCell>
        <mxCell id="iNqdNBhJyVy_k3XLHL68-46" value="eres de medios digitales" style="shape=parallelogram;perimeter=parallelogramPerimeter;whiteSpace=wrap;html=1;fixedSize=1;" vertex="1" parent="1">
          <mxGeometry x="510" y="980" width="130" height="40" as="geometry" />
        </mxCell>
        <mxCell id="iNqdNBhJyVy_k3XLHL68-47" value="" style="endArrow=classic;html=1;rounded=0;" edge="1" parent="1">
          <mxGeometry width="50" height="50" relative="1" as="geometry">
            <mxPoint x="401.25" y="1191" as="sourcePoint" />
            <mxPoint x="401.25" y="1241" as="targetPoint" />
          </mxGeometry>
        </mxCell>
        <mxCell id="iNqdNBhJyVy_k3XLHL68-49" value="edad&lt;br&gt;&amp;gt;=&lt;br&gt;18" style="rhombus;whiteSpace=wrap;html=1;" vertex="1" parent="1">
          <mxGeometry x="337.88" y="1240" width="131.75" height="60" as="geometry" />
        </mxCell>
        <mxCell id="iNqdNBhJyVy_k3XLHL68-50" value="" style="endArrow=classic;html=1;rounded=0;" edge="1" parent="1">
          <mxGeometry relative="1" as="geometry">
            <mxPoint x="469.63" y="1269.5" as="sourcePoint" />
            <mxPoint x="540" y="1270" as="targetPoint" />
          </mxGeometry>
        </mxCell>
        <mxCell id="iNqdNBhJyVy_k3XLHL68-51" value="no" style="edgeLabel;resizable=0;html=1;align=center;verticalAlign=middle;" connectable="0" vertex="1" parent="iNqdNBhJyVy_k3XLHL68-50">
          <mxGeometry relative="1" as="geometry" />
        </mxCell>
        <mxCell id="iNqdNBhJyVy_k3XLHL68-53" value="eres menor&amp;nbsp;" style="shape=parallelogram;perimeter=parallelogramPerimeter;whiteSpace=wrap;html=1;fixedSize=1;" vertex="1" parent="1">
          <mxGeometry x="530" y="1250" width="130" height="40" as="geometry" />
        </mxCell>
        <mxCell id="iNqdNBhJyVy_k3XLHL68-54" value="" style="endArrow=classic;html=1;rounded=0;exitX=0.5;exitY=1;exitDx=0;exitDy=0;" edge="1" parent="1" source="iNqdNBhJyVy_k3XLHL68-49">
          <mxGeometry relative="1" as="geometry">
            <mxPoint x="360" y="1120" as="sourcePoint" />
            <mxPoint x="404" y="1350" as="targetPoint" />
          </mxGeometry>
        </mxCell>
        <mxCell id="iNqdNBhJyVy_k3XLHL68-55" value="si" style="edgeLabel;resizable=0;html=1;align=center;verticalAlign=middle;" connectable="0" vertex="1" parent="iNqdNBhJyVy_k3XLHL68-54">
          <mxGeometry relative="1" as="geometry" />
        </mxCell>
        <mxCell id="iNqdNBhJyVy_k3XLHL68-56" value="eres mayor&amp;nbsp;" style="shape=parallelogram;perimeter=parallelogramPerimeter;whiteSpace=wrap;html=1;fixedSize=1;" vertex="1" parent="1">
          <mxGeometry x="338.76" y="1350" width="130" height="40" as="geometry" />
        </mxCell>
        <mxCell id="iNqdNBhJyVy_k3XLHL68-57" value="" style="endArrow=classic;html=1;rounded=0;exitX=0.5;exitY=1;exitDx=0;exitDy=0;" edge="1" parent="1" source="iNqdNBhJyVy_k3XLHL68-56">
          <mxGeometry width="50" height="50" relative="1" as="geometry">
            <mxPoint x="390" y="1350" as="sourcePoint" />
            <mxPoint x="404" y="1440" as="targetPoint" />
          </mxGeometry>
        </mxCell>
        <mxCell id="iNqdNBhJyVy_k3XLHL68-58" value="FIN" style="ellipse;whiteSpace=wrap;html=1;" vertex="1" parent="1">
          <mxGeometry x="348.75" y="1440" width="110" height="70" as="geometry" />
        </mxCell>
        <mxCell id="iNqdNBhJyVy_k3XLHL68-59" value="" style="endArrow=classic;html=1;rounded=0;exitX=1;exitY=0.5;exitDx=0;exitDy=0;" edge="1" parent="1" source="iNqdNBhJyVy_k3XLHL68-56">
          <mxGeometry width="50" height="50" relative="1" as="geometry">
            <mxPoint x="390" y="1350" as="sourcePoint" />
            <mxPoint x="510" y="1370" as="targetPoint" />
          </mxGeometry>
        </mxCell>
        <mxCell id="iNqdNBhJyVy_k3XLHL68-60" value="4" style="ellipse;whiteSpace=wrap;html=1;aspect=fixed;" vertex="1" parent="1">
          <mxGeometry x="510" y="1355" width="35" height="35" as="geometry" />
        </mxCell>
      </root>
    </mxGraphModel>
  </diagram>
</mxfile>
